<?xml version="1.0" encoding="utf-8"?>
<!-- Generator: Adobe Illustrator 19.1.0, SVG Export Plug-In . SVG Version: 6.00 Build 0)  -->
<svg version="1.1" baseProfile="basic" id="Layer_1"
	 xmlns="http://www.w3.org/2000/svg" xmlns:xlink="http://www.w3.org/1999/xlink" x="0px" y="0px" viewBox="0 0 576.7 113.7"
	 xml:space="preserve">
<polygon points="106.1,77.3 102.3,88.7 162.7,88.7 162.7,77.3 "/>
<polygon points="11.5,102.2 11.5,0 0,0 0,102.2 0,113.7 11.5,113.7 68.8,113.7 68.8,102.2 "/>
<polygon points="139.9,0 122.5,0 83.5,113.7 95.1,113.7 130.1,11.5 132.3,11.5 167.4,113.7 178.9,113.7 "/>
<polygon points="555.8,77.4 573.8,59.6 573.8,22 552,0 498.6,0 498.6,113.7 510.1,113.7 510.1,11.5 547.5,11.5 562.3,26.2 
	562.3,55.1 546.7,70.1 509.6,70.1 509.6,81.6 545.4,81.6 563.9,113.7 576.7,113.7 "/>
<path d="M360.8,0h-56.3v113.7h56.3l21.8-22V22L360.8,0z M315.9,102.2V11.5h40.4l14.8,14.8v61.2l-14.8,14.8H315.9z"/>
<path d="M255.6,0h-56.3v113.7h56.3l21.8-22V22L255.6,0z M210.8,102.2V11.5h40.4L266,26.2v61.2l-14.8,14.8H210.8z"/>
<rect x="406.7" fill="#7DFF7D" width="68.7" height="11.5"/>
<rect x="406.7" y="51.1" fill="#FF7D00" width="68.7" height="11.5"/>
<rect x="406.7" y="102.2" fill="#FF0055" width="68.7" height="11.5"/>
</svg>
